<svg xmlns="http://www.w3.org/2000/svg" viewBox="0 0 83.86 91.34"><defs><style>.cls-1{fill:#1e1e1e;}</style></defs><title>Asset 2</title><g id="Layer_2" data-name="Layer 2"><g id="Layer_1-2" data-name="Layer 1"><path class="cls-1" d="M36.12,19.6v-.11C36.12,8.46,27.61,0,15.29,0H0V39.2H15.29C27.61,39.2,36.12,30.63,36.12,19.6ZM8.62,7.78h6.66c7.06,0,11.82,4.87,11.82,11.82v.11c0,6.94-4.76,11.7-11.82,11.7H8.62Z"/><path class="cls-1" d="M47.07,35.28h6.78l8.4,12.54H72.32l-9.58-14a12.17,12.17,0,0,0,8.4-12.15v-.11a12.3,12.3,0,0,0-3.36-9c-2.58-2.58-6.44-4-11.42-4H38.56V43.51h0V67.65L20.19,43.51h-8v39.2h8.51V57.79l19,24.92h7.34V43.51h0Zm0-18.87h8.57c4.2,0,6.78,1.91,6.78,5.6v.11c0,3.3-2.41,5.54-6.61,5.54H47.07Z"/><polygon class="cls-1" points="51.38 52.14 51.38 60.09 63.31 60.09 63.31 91.34 71.94 91.34 71.94 60.09 83.86 60.09 83.86 52.14 51.38 52.14"/></g></g></svg>